<svg width="226" height="36" viewBox="0 0 226 36" fill="none" xmlns="http://www.w3.org/2000/svg">
<g clip-path="url(#clip0_1_660)">
<path fill-rule="evenodd" clip-rule="evenodd" d="M54.8151 17.31H51.1941V23.9C51.1941 24.45 51.3327 24.85 51.611 25.104C51.8882 25.356 52.294 25.5 52.8283 25.531C53.3627 25.563 54.0236 25.557 54.8151 25.515V29.221C51.9736 29.538 49.9707 29.274 48.8065 28.429C47.6414 27.585 47.0588 26.075 47.0588 23.899V17.311H44.2715V13.383H47.0598V8.948H51.1951V13.383H54.8151V17.311V17.31Z" fill="white"/>
<path fill-rule="evenodd" clip-rule="evenodd" d="M65.3586 12.9401C67.1104 12.9401 68.5578 13.5211 69.7008 14.6821C70.8429 15.8421 71.4144 17.4481 71.4144 19.4971V29.2211H67.2821V20.0041C67.2821 18.9481 66.9939 18.1401 66.4163 17.5801C65.8388 17.0201 65.0704 16.7401 64.1091 16.7401C63.0404 16.7401 62.1856 17.0681 61.5448 17.7231C60.9049 18.3771 60.5835 19.3601 60.5835 20.6681V29.2211H56.4492V7.0481H60.5835V15.1571C61.588 13.6791 63.18 12.9391 65.3586 12.9391V12.9401Z" fill="white"/>
<path fill-rule="evenodd" clip-rule="evenodd" d="M77.0881 19.813H85.2592C85.0242 18.736 84.5391 17.934 83.8028 17.405C83.0711 16.8791 82.189 16.6014 81.2867 16.613C80.1747 16.613 79.2567 16.895 78.5305 17.453C77.8033 18.013 77.3231 18.799 77.0881 19.813ZM77.1524 22.981C77.7078 24.967 79.2135 25.958 81.6704 25.958C83.2514 25.958 84.4477 25.431 85.2592 24.375L88.592 26.275C87.011 28.535 84.6827 29.665 81.6061 29.665C78.9574 29.665 76.832 28.873 75.2289 27.289C73.6268 25.705 72.8262 23.709 72.8262 21.302C72.8262 18.916 73.6157 16.925 75.1967 15.331C76.7787 13.736 78.8077 12.939 81.2867 12.939C83.6351 12.939 85.5746 13.742 87.1024 15.347C88.6292 16.951 89.3935 18.937 89.3935 21.302C89.3935 21.83 89.3403 22.39 89.2328 22.981H77.1524Z" fill="white"/>
<path fill-rule="evenodd" clip-rule="evenodd" d="M103.937 25.0401C105.881 25.0401 107.462 24.4001 108.68 23.1241C109.898 21.8461 110.507 20.1831 110.507 18.1341C110.507 16.0861 109.898 14.4241 108.68 13.1461C107.462 11.8671 105.881 11.2291 103.937 11.2291H99.4509V25.0401H103.937ZM103.937 7.0481C107.013 7.0481 109.583 8.1141 111.644 10.2471C113.706 12.3801 114.737 15.0091 114.737 18.1341C114.737 21.2601 113.706 23.8891 111.644 26.0211C109.583 28.1551 107.013 29.2211 103.937 29.2211H95.0273V7.0481H103.937Z" fill="white"/>
<path fill-rule="evenodd" clip-rule="evenodd" d="M116.403 29.22H120.536V13.384H116.403V29.22ZM118.454 11.482C117.77 11.482 117.176 11.234 116.676 10.739C116.173 10.241 115.922 9.65604 115.922 8.97904C115.922 8.30504 116.173 7.71304 116.676 7.20604C117.176 6.69904 117.77 6.44604 118.454 6.44604C119.159 6.44604 119.762 6.69904 120.264 7.20604C120.766 7.71304 121.017 8.30504 121.017 8.98004C121.017 9.65604 120.766 10.241 120.264 10.739C119.762 11.234 119.159 11.482 118.454 11.482Z" fill="white"/>
<path fill-rule="evenodd" clip-rule="evenodd" d="M127.603 24.169C128.447 24.982 129.52 25.389 130.824 25.389C132.126 25.389 133.2 24.982 134.045 24.169C134.888 23.356 135.31 22.316 135.31 21.049C135.31 19.803 134.888 18.774 134.045 17.96C133.2 17.147 132.126 16.74 130.824 16.74C129.52 16.74 128.447 17.147 127.603 17.96C126.758 18.774 126.337 19.803 126.337 21.048C126.337 22.316 126.758 23.356 127.603 24.168V24.169ZM135.31 13.383H139.347V28.461C139.347 30.911 138.53 32.78 136.897 34.068C135.262 35.355 133.291 36 130.983 36C129.253 36 127.732 35.672 126.418 35.017C125.133 34.3913 124.075 33.3848 123.388 32.136L126.914 30.139C127.727 31.618 129.126 32.357 131.113 32.357C132.414 32.357 133.441 32.019 134.188 31.344C134.936 30.668 135.31 29.707 135.31 28.46V26.75C134.093 28.355 132.383 29.158 130.182 29.158C127.917 29.158 126.022 28.371 124.494 26.798C122.967 25.225 122.203 23.308 122.203 21.048C122.203 18.81 122.973 16.899 124.511 15.315C126.049 13.731 127.94 12.939 130.182 12.939C132.383 12.939 134.093 13.742 135.31 15.348V13.383Z" fill="white"/>
<path fill-rule="evenodd" clip-rule="evenodd" d="M141.814 29.22H145.947V13.384H141.814V29.22ZM143.865 11.482C143.181 11.482 142.588 11.234 142.086 10.739C141.584 10.241 141.334 9.65604 141.334 8.97904C141.334 8.30504 141.584 7.71304 142.086 7.20604C142.588 6.69904 143.181 6.44604 143.865 6.44604C144.569 6.44604 145.173 6.69904 145.676 7.20604C146.177 7.71304 146.429 8.30504 146.429 8.98004C146.429 9.65604 146.177 10.241 145.676 10.739C145.441 10.9786 145.159 11.168 144.847 11.2957C144.536 11.4234 144.202 11.4868 143.865 11.482Z" fill="white"/>
<path fill-rule="evenodd" clip-rule="evenodd" d="M157.614 17.31H153.993V23.9C153.993 24.45 154.131 24.85 154.409 25.104C154.687 25.356 155.093 25.5 155.627 25.531C156.161 25.563 156.823 25.557 157.614 25.515V29.221C154.772 29.538 152.77 29.274 151.604 28.429C150.44 27.585 149.859 26.075 149.859 23.899V17.311H147.07V13.383H149.859V8.964L153.993 8.948V13.383H157.614V17.311V17.31Z" fill="white"/>
<path fill-rule="evenodd" clip-rule="evenodd" d="M163.318 24.517C164.151 25.352 165.209 25.769 166.49 25.769C167.771 25.769 168.835 25.352 169.68 24.517C170.523 23.683 170.944 22.612 170.944 21.302C170.944 19.993 170.523 18.922 169.68 18.087C168.835 17.252 167.771 16.835 166.49 16.835C165.209 16.835 164.151 17.252 163.318 18.087C162.485 18.921 162.068 19.993 162.068 21.302C162.068 22.612 162.485 23.683 163.318 24.517ZM170.944 13.383H175.078V29.22H170.944V27.352C169.706 28.892 167.964 29.664 165.721 29.664C163.585 29.664 161.752 28.856 160.226 27.241C158.698 25.624 157.934 23.645 157.934 21.301C157.934 18.957 158.698 16.976 160.226 15.361C161.752 13.747 163.585 12.938 165.721 12.938C167.964 12.938 169.706 13.708 170.944 15.251V13.381V13.383Z" fill="white"/>
<path fill-rule="evenodd" clip-rule="evenodd" d="M177.547 29.2211H181.679V7.0481H177.547V29.2201V29.2211Z" fill="white"/>
<path fill-rule="evenodd" clip-rule="evenodd" d="M197.769 25.1351C198.516 25.1351 199.136 24.8871 199.628 24.3901C200.119 23.8951 200.366 23.2661 200.366 22.5061C200.366 21.7671 200.119 21.1491 199.628 20.6531C199.136 20.1571 198.516 19.9081 197.769 19.9081H192.674V25.1351H197.769ZM197.096 11.1331H192.674V16.0121H197.096C197.78 16.0121 198.352 15.7791 198.811 15.3151C199.27 14.8501 199.499 14.2701 199.499 13.5731C199.499 12.8771 199.276 12.2951 198.827 11.8301C198.378 11.3671 197.801 11.1331 197.096 11.1331ZM201.808 17.7231C203.773 18.8421 204.756 20.5321 204.756 22.7921C204.756 24.6721 204.082 26.2121 202.736 27.4161C201.39 28.6191 199.734 29.2211 197.769 29.2211H188.252V7.04712H197.096C199.019 7.04712 200.638 7.63412 201.952 8.80712C203.266 9.97712 203.921 11.4721 203.921 13.2871C203.921 15.1261 203.216 16.6041 201.808 17.7231Z" fill="#EB175C"/>
<path fill-rule="evenodd" clip-rule="evenodd" d="M212.318 21.1431H218.631L215.395 12.0841L212.318 21.1441V21.1431ZM221.518 29.2211L220.093 25.2301H210.878L209.531 29.2211H204.758L212.608 7.0481H218.088L226.001 29.2201H221.518V29.2211Z" fill="#EB175C"/>
<path fill-rule="evenodd" clip-rule="evenodd" d="M15.599 2.71606H0V33.5521H15.599C24.2121 33.5521 31.196 26.6501 31.196 18.1341H15.599V2.71606Z" fill="#004CFF"/>
<path fill-rule="evenodd" clip-rule="evenodd" d="M0 18.134C0 26.649 6.9839 33.552 15.599 33.552V18.134H0Z" fill="#1B00BD"/>
<path fill-rule="evenodd" clip-rule="evenodd" d="M31.1957 18.134C31.1957 26.649 24.2128 33.552 15.5977 33.552V18.134H31.1967H31.1957Z" fill="#004CFF"/>
<path fill-rule="evenodd" clip-rule="evenodd" d="M0 18.1341C0 9.62007 6.9839 2.71606 15.599 2.71606V18.1341H0Z" fill="#004CFF"/>
<path fill-rule="evenodd" clip-rule="evenodd" d="M18.3467 0V15.418H33.9447C33.9447 6.903 26.9598 0 18.3457 0H18.3467Z" fill="#EB175C"/>
</g>
<defs>
<clipPath id="clip0_1_660">
<rect width="226" height="36" fill="white"/>
</clipPath>
</defs>
</svg>
