<svg width="60" height="60" viewBox="0 0 60 60" fill="none" xmlns="http://www.w3.org/2000/svg">
<path d="M35.2489 30.9281C35.0513 30.8431 34.8828 30.702 34.7645 30.5223C34.6462 30.3426 34.5832 30.1321 34.5833 29.917C34.5819 29.7632 34.6121 29.6108 34.6721 29.4692C34.732 29.3276 34.8204 29.1999 34.9319 29.0939C34.9998 29.0291 35.0649 28.9653 35.1136 28.9139C35.4584 28.551 35.7625 28.1515 36.0207 27.7226C36.6997 26.5895 37.0363 25.2841 36.9898 23.9639C36.9434 22.6437 36.5159 21.3651 35.759 20.2825C35.0021 19.1999 33.948 18.3594 32.724 17.8625C31.5 17.3656 30.1584 17.2336 28.861 17.4822C27.5389 17.7138 26.317 18.3377 25.3543 19.273C24.3916 20.2082 23.7325 21.4115 23.4629 22.7263C23.2136 23.8585 23.256 25.0354 23.5861 26.1467C23.9162 27.2579 24.5232 28.2671 25.3501 29.0796C25.4623 29.186 25.5521 29.3137 25.6143 29.4552C25.6765 29.5968 25.7098 29.7493 25.7122 29.9039V29.9096C25.7142 30.1266 25.6521 30.3393 25.5337 30.5211C25.4153 30.7029 25.2458 30.8457 25.0466 30.9315C22.3195 32.0612 20.1448 34.2161 18.9903 36.9328C18.1787 38.7933 17.7716 40.805 17.796 42.8347V44.2972C17.796 44.6108 17.8577 44.9214 17.9778 45.2111C18.0978 45.5009 18.2738 45.7641 18.4956 45.9859C18.7174 46.2076 18.9807 46.3835 19.2705 46.5034C19.5603 46.6234 19.8709 46.6851 20.1845 46.685H40.1167C40.7499 46.6849 41.3572 46.4334 41.8049 45.9856C42.2526 45.5378 42.5041 44.9306 42.5041 44.2974V42.8201C42.5284 40.7913 42.1206 38.7805 41.3078 36.9214C40.1512 34.2071 37.9757 32.0551 35.2489 30.9281Z" fill="#004CFF"/>
<path d="M57.2268 33.6234C56.0704 30.9092 53.895 28.7572 51.1685 27.6302C50.9709 27.5451 50.8026 27.404 50.6843 27.2243C50.566 27.0446 50.5029 26.8342 50.5029 26.619C50.5016 26.4653 50.5318 26.3129 50.5918 26.1713C50.6517 26.0297 50.7402 25.9019 50.8516 25.7959C50.9195 25.731 50.9848 25.6673 51.0333 25.6158C51.3781 25.2531 51.6823 24.8539 51.9404 24.4252C52.6195 23.2921 52.9562 21.9866 52.9098 20.6664C52.8634 19.3462 52.436 18.0676 51.679 16.9849C50.9221 15.9022 49.868 15.0617 48.644 14.5649C47.42 14.068 46.0783 13.9359 44.7809 14.1847C43.4588 14.4161 42.2369 15.04 41.2741 15.9753C40.3114 16.9106 39.6524 18.1139 39.3828 19.4288C39.1335 20.5609 39.1759 21.7378 39.5059 22.8491C39.836 23.9603 40.443 24.9695 41.2699 25.782C41.3821 25.8884 41.4719 26.016 41.5341 26.1576C41.5963 26.2991 41.6295 26.4517 41.6319 26.6063V26.6122C41.634 26.8291 41.5719 27.0419 41.4535 27.2237C41.3351 27.4055 41.1656 27.5483 40.9663 27.6341C39.8771 28.0802 38.866 28.6969 37.9707 29.461C40.4826 30.9502 42.458 33.1971 43.6133 35.879C44.5775 38.065 45.0622 40.4322 45.0347 42.8212V43.3877H56.0357C56.6689 43.3877 57.2761 43.1362 57.7239 42.6885C58.1717 42.2407 58.4232 41.6335 58.4233 41.0003V39.5222C58.4476 37.4933 58.0397 35.4825 57.2268 33.6234Z" fill="#004CFF"/>
<path d="M22.3315 29.4603C21.4345 28.6944 20.4209 28.0766 19.3291 27.6302C19.1315 27.5452 18.9631 27.404 18.8448 27.2243C18.7265 27.0446 18.6635 26.8342 18.6635 26.619C18.6621 26.4653 18.6924 26.3128 18.7524 26.1712C18.8124 26.0296 18.9009 25.9019 19.0123 25.7959C19.08 25.731 19.1452 25.6673 19.194 25.6158C19.5387 25.2531 19.8427 24.8539 20.1008 24.4252C20.78 23.2921 21.1167 21.9867 21.0703 20.6664C21.024 19.3462 20.5966 18.0676 19.8396 16.9849C19.0827 15.9022 18.0286 15.0617 16.8046 14.5648C15.5805 14.068 14.2388 13.9359 12.9414 14.1847C11.6193 14.4162 10.3974 15.0401 9.43468 15.9754C8.47193 16.9106 7.81287 18.1139 7.54321 19.4288C7.294 20.5609 7.33644 21.7378 7.66653 22.8491C7.99662 23.9603 8.60355 24.9695 9.4304 25.782C9.54265 25.8884 9.6325 26.016 9.69468 26.1576C9.75686 26.2991 9.79011 26.4517 9.79246 26.6063V26.6122C9.79451 26.8292 9.73243 27.0419 9.61401 27.2237C9.49559 27.4055 9.32611 27.5483 9.12684 27.6341C6.39978 28.7637 4.22509 30.9187 3.07058 33.6353C2.25896 35.4958 1.85178 37.5075 1.87602 39.5371V41.0003C1.87601 41.3138 1.93775 41.6243 2.05773 41.9139C2.17771 42.2036 2.35356 42.4668 2.57526 42.6885C2.79696 42.9102 3.06015 43.0861 3.34981 43.206C3.63948 43.326 3.94993 43.3877 4.26346 43.3877H15.2654V42.8353C15.2381 40.4463 15.7216 38.0792 16.6836 35.8923C17.838 33.2046 19.8155 30.9525 22.3315 29.4603Z" fill="#004CFF"/>
</svg>
