<svg width="67" height="66" viewBox="0 0 67 66" fill="none" xmlns="http://www.w3.org/2000/svg">
<path fill-rule="evenodd" clip-rule="evenodd" d="M0.00431186 0V66H67C67 29.5497 36.9988 0 0 0H0.00431186Z" fill="#EB175C"/>
<path d="M32.6834 34.6319C33.2357 34.6319 33.6834 35.0797 33.6834 35.6319V52.9354C33.6834 53.4877 33.2357 53.9354 32.6834 53.9354H13C12.4477 53.9354 12 53.4877 12 52.9354V38.8628C12 30.6655 13.3222 24.5835 15.702 20.8815C18.5133 16.2812 23.3007 12.6689 29.8255 10.0447C30.2314 9.88144 30.6951 10.009 30.9667 10.3521L34.683 15.0463C35.1038 15.5779 34.8842 16.3653 34.2597 16.6294C30.6632 18.1502 27.9395 20.0964 26.2793 22.4681C24.5528 25.1811 23.5165 28.8143 23.1703 33.5822C23.1289 34.1526 23.5855 34.6319 24.1574 34.6319H32.6834Z" fill="white"/>
<path d="M61.2927 34.6319C61.845 34.6319 62.2927 35.0797 62.2927 35.6319V52.9354C62.2927 53.4877 61.845 53.9354 61.2927 53.9354H41.6094C41.0571 53.9354 40.6094 53.4877 40.6094 52.9354V38.8628C40.6094 30.6655 41.9315 24.5835 44.3114 20.8815C47.1227 16.2812 51.9101 12.6689 58.4349 10.0447C58.8408 9.88144 59.3045 10.009 59.5761 10.3521L63.2924 15.0463C63.7132 15.5779 63.4935 16.3653 62.8691 16.6294C59.2726 18.1502 56.5488 20.0964 54.8887 22.4681C53.1622 25.1811 52.1259 28.8143 51.7796 33.5822C51.7382 34.1526 52.1948 34.6319 52.7667 34.6319H61.2927Z" fill="white"/>
</svg>
