<svg width="42" height="42" viewBox="0 0 42 42" fill="none" xmlns="http://www.w3.org/2000/svg">
<path fill-rule="evenodd" clip-rule="evenodd" d="M21 27C21.1989 27 21.3896 26.921 21.5303 26.7803C21.671 26.6397 21.75 26.4489 21.75 26.25V17.5605L24.969 20.781C25.0387 20.8507 25.1215 20.906 25.2126 20.9438C25.3037 20.9815 25.4014 21.0009 25.5 21.0009C25.5986 21.0009 25.6962 20.9815 25.7873 20.9438C25.8785 20.906 25.9612 20.8507 26.031 20.781C26.1007 20.7113 26.156 20.6285 26.1938 20.5374C26.2315 20.4463 26.2509 20.3486 26.2509 20.25C26.2509 20.1514 26.2315 20.0537 26.1938 19.9626C26.156 19.8715 26.1007 19.7887 26.031 19.719L21.531 15.219C21.4613 15.1492 21.3785 15.0937 21.2874 15.0559C21.1963 15.0181 21.0986 14.9987 21 14.9987C20.9013 14.9987 20.8036 15.0181 20.7125 15.0559C20.6214 15.0937 20.5386 15.1492 20.469 15.219L15.969 19.719C15.8992 19.7887 15.8439 19.8715 15.8062 19.9626C15.7684 20.0537 15.749 20.1514 15.749 20.25C15.749 20.3486 15.7684 20.4463 15.8062 20.5374C15.8439 20.6285 15.8992 20.7113 15.969 20.781C16.1098 20.9218 16.3008 21.0009 16.5 21.0009C16.5986 21.0009 16.6962 20.9815 16.7873 20.9438C16.8785 20.906 16.9612 20.8507 17.031 20.781L20.25 17.5605V26.25C20.25 26.4489 20.329 26.6397 20.4696 26.7803C20.6103 26.921 20.8011 27 21 27Z" fill="white"/>
<circle cx="21" cy="21" r="20" stroke="#EB175C" stroke-width="2"/>
</svg>
