<svg width="60" height="60" viewBox="0 0 60 60" fill="none" xmlns="http://www.w3.org/2000/svg">
<path d="M34.1587 52.7273C33.8292 52.7271 33.5063 52.6342 33.227 52.4593C32.9477 52.2844 32.7231 52.0346 32.579 51.7382L24.3173 34.7542L7.33331 26.4937C7.02736 26.3445 6.77129 26.1098 6.59618 25.8179C6.42107 25.5261 6.33446 25.1896 6.34687 24.8495C6.35928 24.5093 6.47017 24.1801 6.66608 23.9018C6.86199 23.6235 7.13449 23.408 7.4505 23.2816L51.0337 5.75148C51.3535 5.62258 51.7042 5.59058 52.042 5.65946C52.3799 5.72834 52.69 5.89506 52.9338 6.13888C53.1776 6.38269 53.3443 6.69282 53.4132 7.03067C53.4821 7.36853 53.4501 7.71918 53.3212 8.03898L35.79 51.6257C35.6628 51.9415 35.4468 52.2135 35.168 52.4089C34.8893 52.6042 34.5598 52.7144 34.2196 52.7261L34.1587 52.7273ZM12.4345 25.071L26.4009 31.8679C26.7549 32.04 27.0409 32.326 27.213 32.68L34.0099 46.6464L48.5165 10.5468L12.4345 25.071Z" fill="#004CFF"/>
<path d="M25.6324 35.1972C25.2848 35.1971 24.9449 35.0939 24.6559 34.9007C24.3668 34.7075 24.1416 34.4329 24.0086 34.1116C23.8757 33.7904 23.8409 33.4369 23.9089 33.0959C23.9768 32.7549 24.1443 32.4418 24.3902 32.196L50.4469 6.13936C50.6102 5.97615 50.804 5.84671 51.0173 5.75841C51.2306 5.67012 51.4592 5.6247 51.6901 5.62476C51.9209 5.62481 52.1495 5.67034 52.3628 5.75873C52.5761 5.84713 52.7698 5.97666 52.933 6.13994C53.0962 6.30322 53.2257 6.49705 53.314 6.71036C53.4023 6.92366 53.4477 7.15227 53.4476 7.38313C53.4476 7.61399 53.4021 7.84258 53.3137 8.05584C53.2253 8.26911 53.0957 8.46287 52.9324 8.62608L26.8758 34.6874C26.5452 35.0153 26.098 35.1986 25.6324 35.1972Z" fill="#004CFF"/>
</svg>
