<svg width="48" height="46" viewBox="0 0 48 46" fill="none" xmlns="http://www.w3.org/2000/svg">
<path d="M21.5544 2.5267C22.3242 0.15762 25.6758 0.157617 26.4456 2.5267L30.1581 13.9527C30.5023 15.0122 31.4897 15.7295 32.6037 15.7295H44.6176C47.1087 15.7295 48.1444 18.9171 46.1291 20.3812L36.4096 27.4429C35.5083 28.0977 35.1312 29.2583 35.4755 30.3178L39.188 41.7438C39.9577 44.1129 37.2462 46.0829 35.231 44.6188L25.5114 37.5571C24.6102 36.9023 23.3898 36.9023 22.4886 37.5571L12.769 44.6187C10.7538 46.0829 8.04225 44.1129 8.81202 41.7438L12.5245 30.3178C12.8688 29.2583 12.4917 28.0977 11.5904 27.4429L1.8709 20.3813C-0.144361 18.9171 0.891343 15.7295 3.38235 15.7295H15.3963C16.5103 15.7295 17.4977 15.0122 17.8419 13.9527L21.5544 2.5267Z" fill="#004CFF"/>
</svg>
